<?xml version="1.0"?>
<svg width="512" height="512" xmlns="http://www.w3.org/2000/svg" xmlns:svg="http://www.w3.org/2000/svg">
 <!--!Font Awesome Free 6.7.2 by @fontawesome - https://fontawesome.com License - https://fontawesome.com/license/free Copyright 2025 Fonticons, Inc.-->
 <g class="layer">
  <title>Layer 1</title>
  <path d="m502.78,-97.49c-19.72,-16.65 -51.76,-16.65 -71.48,0l-189.35,159.84c-19.72,16.65 -19.72,43.69 0,60.34l25.25,21.31c19.72,16.65 51.76,16.65 71.48,0l6.31,-5.33l168.53,142.12l-6.31,5.33c-19.72,16.65 -19.72,43.69 0,60.34l25.25,21.31c19.72,16.65 51.76,16.65 71.48,0l189.35,-159.84c19.72,-16.65 19.72,-43.69 0,-60.34l-25.25,-21.31c-19.72,-16.65 -51.76,-16.65 -71.48,0l-6.31,5.33l-168.53,-142.26l6.31,-5.33c19.72,-16.65 19.72,-43.69 0,-60.34l-25.25,-21.31l0,0.13zm-239.85,383.62c-19.72,-16.65 -51.76,-16.65 -71.48,0l-176.73,149.18c-19.72,16.65 -19.72,43.69 0,60.34l75.74,63.94c19.72,16.65 51.76,16.65 71.48,0l176.73,-149.18c19.72,-16.65 19.72,-43.69 0,-60.34l-2.21,-1.86l92.78,-78.19l-71.48,-60.34l-92.63,78.19l-2.21,-1.86l0,0.13z" id="svg_1"/>
 </g>
</svg>